<svg id="Layer_1" data-name="Layer 1" xmlns="http://www.w3.org/2000/svg" viewBox="0 0 349.64 503">
  <path d="M173.11,0h26a9,9,0,0,0,1.24,2c4.67,4.4,10.5,8,13.85,13.25a217.87,217.87,0,0,1,15.06,29c6.05,13.64,11.51,27.56,16.89,41.48C251,98.32,255.4,111,260,123.65c3.5,9.68,7,19.35,10.42,29.06,3.28,9.36,6.43,18.76,10,29.26a22.4,22.4,0,0,0,1.18-2.18c6.13-17.18,12.31-34.35,18.37-51.56,4.46-12.66,8.33-25.54,13.26-38q9.23-23.32,19.85-46.09c5.81-12.42,13.51-23.54,26.14-30.31C377,4.3,397.67,9.26,408.85,25.87a43.24,43.24,0,0,1,7.19,30c-1.94,14.93-5.33,29.73-8.94,44.38-2.93,11.9-7,23.52-10.74,35.2q-6.76,21.09-13.88,42.07c-3.78,11.15-7.77,22.22-11.69,33.32-.89,2.52-.33,4,2.44,4.85,6.14,2,12.37,3.78,18.21,6.44a49.55,49.55,0,0,1,23.46,22.07c6.47,11.84,9.08,24.72,10.27,37.75,2.67,29.36.87,58.44-7.19,87-4.76,16.87-10.84,33.12-20.52,47.76-6.3,9.52-12.47,19.4-20.33,27.55a242.21,242.21,0,0,1-34,29.7c-9.58,6.79-21.05,10.95-31.8,16-14.11,6.68-29.16,9.92-44.58,11.73a17.11,17.11,0,0,0-3.65,1.29h-46c-6.78-1.52-13.57-3-20.36-4.55C181.6,495,167.44,489,153.89,481.56c-16-8.86-29.29-21.16-41.7-34.44-17.36-18.57-29.86-39.74-34.77-65-.29-1.47-.67-10.06-.72-13.41-.1-6.68.2-26.7.2-26.7s.36-4.57.64-6c3.21-16.39,12.23-28.55,26.86-36.34,5-2.69,10.63-4.48,16.12-6.24,6.08-2,7.15-3.5,5-9.21-1.34-3.56-3-7-4.23-10.59-3.59-10.91-5.36-22.2,1.69-32.1a128.88,128.88,0,0,1,20.49-22.76c10.46-9,22.85-11.88,36.32-6.23,3.73,1.56,7.62,2.72,12.35,4.38-.24-2.72-.07-4.57-.6-6.17-3.18-9.43-6.59-18.78-9.8-28.21-6.51-19.17-13.26-38.27-19.32-57.59q-7.74-24.69-14.09-49.82c-4.19-16.54-7.2-33.32-1.44-50.19,2.87-8.41,7.67-15.39,16-19.47C166.33,3.78,169.69,1.83,173.11,0Zm-53,356.91,2.25-.05c5.28,6.79,10.67,13.51,15.82,20.4,8.37,11.21,17.81,21,31.28,26.16a19.54,19.54,0,0,0,21.09-4.66c4.1-4.3,4.34-9.42.5-16.61C179.23,360,163.75,340.52,146,322.84c-3.11-3.1-6.87-6.13-10.91-7.62-9.8-3.6-17.5,1.27-23.95,8.1-13.61,14.4-15.07,31.92-10.91,50,4.22,18.37,13.5,34.56,24.87,49.55C142.44,445.69,164,463,191.56,471.53c11.68,3.61,23.76,6.77,35.87,7.92a162.38,162.38,0,0,0,46.25-1.93C295.21,473.38,314.8,465.09,332,452a169.17,169.17,0,0,0,53-66.29,185.68,185.68,0,0,0,16.07-68c.74-15.69-.65-31.6-2.45-47.26-1.14-9.94-5.52-19-14.72-24.92-17.12-11.05-36.53-15.92-56-19.83-18.55-3.74-37.52-5.52-56.37-7.51a184.91,184.91,0,0,0-30.4-.88c-14,.84-18.6,7.68-17.65,20.73,1.17,16.17,11.82,25.69,25.94,31.07,17.72,6.76,36.47,9,55.32,9.63,13.48.49,27,.18,40.49.57a21.9,21.9,0,0,1,9.38,2.57c6.8,3.62,7.25,12.45.74,16.36a100.51,100.51,0,0,1-16.58,7.93c-17,6.37-32.62,14.69-45.5,27.83s-23,28.09-28.3,45.74c-2.37,7.87-4.14,16.2-1.89,24.64,2.17,8.17,4.39,16.33,6.45,24.52a132.58,132.58,0,0,1,3.5,16c.52,4.27-1.46,5.54-5.44,4.35-8.43-2.52-14.4-8-18.61-15.59-6.53-11.78-9-24.56-9.3-37.88-.07-2.92-.37-5.84-.54-8.32l-22,1.1c.31,1.49.59,2.92.91,4.34,2.49,11.3-1.06,21-9.24,28.47-12,11.05-26.15,12-41,6.43-17-6.34-29.52-18.38-40.37-32.29-6.35-8.14-10.19-17.62-10.06-28.12C117.39,363.93,119.16,360.42,120.14,356.91Zm93.93-156c6.34-6.53,13.67-6.38,21-5.92,6.15.39,12.31.77,18.4,1.57,4.16.55,4.83-1.31,3.81-4.52-1.85-5.85-3.89-11.64-5.93-17.42-6.59-18.61-13.16-37.22-19.84-55.79-8.16-22.63-16.21-45.3-24.74-67.78-3.35-8.82-7.48-17.42-14.9-23.85-7.9-6.86-19.86-4.4-23.51,5.32-1.64,4.36-2.85,9.48-2.23,14a297.74,297.74,0,0,0,6.57,33.19c2.92,11.41,6.69,22.6,10.29,33.83,3.48,10.89,7.13,21.72,10.85,32.52q5.12,14.8,10.54,29.48C207.42,183.73,210.62,191.88,214.07,200.92Zm87.06-.65c3.27,1.07,5.82,2.27,8.5,2.73,9.84,1.65,19.74,2.94,29.57,4.63,3.32.57,5.3,0,6.49-3.43,3.95-11.44,8.17-22.78,12.17-34.21,5.8-16.58,11.67-33.15,17.21-49.82,4.8-14.48,9.52-29,13.64-43.68,2.5-8.89,5.56-17.84,4.08-27.42-1.14-7.41-4.85-12.69-12.23-14.74-6-1.66-10.58,1.19-14.7,5.25-12.1,11.93-17.57,27.59-23.53,42.81-5.85,15-10.44,30.39-15.74,45.57C318.29,151.74,309.87,175.47,301.13,200.27ZM240.37,346.44c-.32-2.31-.21-4.78-1-6.89-5.25-13.63-10.09-27.46-16.27-40.67a364.74,364.74,0,0,0-19.49-35.18c-5.71-9.36-12.31-18.38-22-24.08a31,31,0,0,0-14.39-4.44c-9-.23-25,16.5-23.48,27.44,1.41,10.4,6,19.41,11.17,28a396.44,396.44,0,0,0,23.61,34.49C189.12,339,200.34,352.4,216,361.15c5.27,3,10.75,4,16.12.8C237.81,358.53,240.61,353.25,240.37,346.44Zm21.56-13.1L294,303.28l-47.43-9Z" transform="translate(-76.68)"/>
</svg>
